<ttFont>
<head>
    <!-- Most of this table will be recalculated by the compiler -->
    <tableVersion value="1.0"/>
    <fontRevision value="1.0"/>
    <checkSumAdjustment value="0x33f22f1f"/>
    <magicNumber value="0x5f0f3cf5"/>
    <flags value="00000000 00000011"/>
    <unitsPerEm value="1000"/>
    <created value="Wed Jan 15 18:26:39 2025"/>
    <modified value="Wed Jan 15 18:26:39 2025"/>
    <xMin value="-150"/>
    <yMin value="-1195"/>
    <xMax value="1927"/>
    <yMax value="1170"/>
    <macStyle value="00000000 00000000"/>
    <lowestRecPPEM value="7"/>
    <fontDirectionHint value="2"/>
    <indexToLocFormat value="0"/>
    <glyphDataFormat value="0"/>
  </head>
          <CharString index="0">
            hlineto
            19 16 16 19 19 -16 16 -19 hvcurveto
            return
          </CharString>
          <CharString index="1">
            -102 callsubr
            -205 465 rmoveto
            -600 vlineto
            -19 16 -16 19 vhcurveto
            600 -107 callsubr
            -540 hlineto
            -16 -9 9 16 hvcurveto
            540 -93 callsubr
            240 -370 -104 callsubr
            -704 592 rmoveto
            257 276 rlineto
            10 9 8 3 13 hhcurveto
            567 -107 callsubr
            -597 hlineto
            -13 -8 -3 -10 -9 hvcurveto
            -279 -298 -96 callsubr
            return
          </CharString>
          <CharString index="2">
            -102 callsubr
            35 95 -104 callsubr
            return
          </CharString>
          <CharString index="3">
            -99 callsubr
            74 606 rmoveto
            154 166 rlineto
            9 9 8 4 13 hhcurveto
            445 hlineto
            22 6 -15 -16 -15 hvcurveto
            -154 -166 rlineto
            -9 -9 -8 -4 -13 hhcurveto
            -445 hlineto
            -22 -6 15 16 15 hvcurveto
            526 -532 rmoveto
            435 vlineto
            12 4 10 8 9 vhcurveto
            147 158 rlineto
            15 16 16 -6 -22 vvcurveto
            -434 vlineto
            -12 -4 -10 -8 -9 vhcurveto
            -147 -159 rlineto
            -15 -16 -16 6 22 vvcurveto
            return
          </CharString>
          <CharString index="4">
            301 1050 rmoveto
            293 -371 3 -683 -298 -386 -9 -12 rcurveline
            -12 -15 -35 -39 -13 -14 rrcurveto
            480 80 -305 hlineto
            274 403 -3 647 -269 390 rrcurveto
            303 80 -477 hlineto
            13 -13 32 -39 23 -28 rrcurveto
            endchar
          </CharString>
          <CharString index="5">
            -95 rmoveto
            597 hlineto
            13 8 3 10 9 hvcurveto
            256 275 rlineto
            8 -95 callsubr
            -607 hlineto
            -13 -8 -3 -10 -9 hvcurveto
            -256 -275 rlineto
            -8 -9 -4 -10 -94 callsubr
            return
          </CharString>
          <CharString index="6">
            1100 rmoveto
            -60 -218 hlineto
            -189 109 -30 -52 189 -109 -189 -109 30 -52 189 109 rlineto
            -218 60 218 vlineto
            189 -109 30 52 -189 109 189 109 -30 52 -189 -109 rlineto
            endchar
          </CharString>
          <CharString index="7">
            587 1105 rmoveto
            -66 53 -385 -399 -5 -837 390 -420 rlinecurve
            66 53 -361 391 5 788 356 371 rlinecurve
            endchar
          </CharString>
          <CharString index="8">
            rmoveto
            480 vlineto
            16 9 9 16 vhcurveto
            480 hlineto
            16 9 -9 -16 hvcurveto
            -480 vlineto
            -16 -9 -9 -16 vhcurveto
            -480 hlineto
            -16 -9 9 16 hvcurveto
            return
          </CharString>
          <CharString index="9">
            520 450 rmoveto
            680 -90 -600 -210 -400 210 -600 90 680 -220 240 vlineto
            endchar
          </CharString>
          <CharString index="10">
            546 1136 rmoveto
            -316 -835 293 -780 81 30 -283 750 306 805 rlineto
            endchar
          </CharString>
          <CharString index="11">
            rlineto
            -5 -6 -4 -9 -9 vvcurveto
            -19 16 -16 19 10 9 4 7 7 vhcurveto
            return
          </CharString>
          <CharString index="12">
            9 4 10 12 vvcurveto
            606 vlineto
            16 -9 9 -16 vhcurveto
            return
          </CharString>
          <CharString index="13">
            -12 vvcurveto
            -596 vlineto
            -19 16 -16 19 vhcurveto
            return
          </CharString>
          <CharString index="14">
            vlineto
            19 -16 16 -19 -19 -16 -16 -19 vhcurveto
            return
          </CharString>
          <CharString index="15">
            1100 rmoveto
            -60 -540 60 hlineto
            endchar
          </CharString>
        <CharString name=".notdef">
          -187 410 800 rmoveto
          -317 -1000 317 hlineto
          -77 318 rmoveto
          -113 -166 113 vlineto
          133 -33 rmoveto
          -100 -47 100 hlineto
          33 253 rmoveto
          -113 -166 113 33 -80 100 47 -33 -23 -34 56 vlineto
          100 122 rmoveto
          -100 -166 34 133 66 vlineto
          33 60 rmoveto
          -33 -66 -70 -100 33 66 37 -66 33 vlineto
          66 97 rmoveto
          -33 -36 33 hlineto
          34 70 rmoveto
          -70 66 -34 -166 104 vlineto
          166 129 rmoveto
          -33 -66 -37 66 -33 -166 33 66 37 -65 33 vlineto
          165 -751 rmoveto
          -33 -32 vlineto
          -70 -47 rlineto
          102 -33 -166 33 hlineto
          70 47 rlineto
          -70 33 hlineto
          endchar
        </CharString>
        <CharString name="A">
          -7 380 1130 rmoveto
          -80 -1600 80 hlineto
          endchar
        </CharString>
        <CharString name="X">
          endchar
        </CharString>
        <CharString name="acutecomb">
          -687 160 -92 callsubr
        </CharString>
        <CharString name="acutecomb.001">
          -687 30 540 rmoveto
          600 hlineto
          300 300 rlineto
          -600 hlineto
          -300 -300 rlineto
          -600 vlineto
          600 vlineto
          600 hmoveto
          -600 vlineto
          300 300 rlineto
          600 vlineto
          -300 -300 rlineto
          -600 vmoveto
          -600 hlineto
          600 hlineto
          420 609 rmoveto
          -617 vlineto
          -21 16 -16 21 vhcurveto
          618 hlineto
          17 10 6 12 11 hvcurveto
          175 199 3 3 2 5 3 4 rlinecurve
          5 1 3 6 vvcurveto
          622 vlineto
          20 -10 12 -21 vhcurveto
          -624 hlineto
          -17 -10 -6 -12 -11 hvcurveto
          -175 -200 -3 -3 -2 -4 -3 -5 rlinecurve
          -4 -1 -3 -6 vvcurveto
          73 -549 rmoveto
          481 vlineto
          20 12 12 20 vhcurveto
          487 hlineto
          20 10 -12 -20 hvcurveto
          -481 vlineto
          -20 -10 -10 -20 vhcurveto
          -487 hlineto
          -20 -12 10 20 hvcurveto
          80 625 rmoveto
          66 75 rlineto
          12 10 11 5 16 hhcurveto
          452 hlineto
          27 8 -19 -19 -17 hvcurveto
          -68 -75 rlineto
          -12 -10 -11 -6 -16 hhcurveto
          -450 hlineto
          -27 -9 19 20 18 hvcurveto
          544 -535 rmoveto
          423 vlineto
          15 5 10 10 12 vhcurveto
          53 62 rlineto
          18 22 21 -9 -28 vvcurveto
          -423 vlineto
          -15 -5 -12 -10 -11 vhcurveto
          -54 -61 rlineto
          -19 -22 -19 8 29 vvcurveto
          -1662 -1285 rmoveto
          596 hlineto
          12 10 4 9 9 hvcurveto
          295 295 rlineto
          9 -95 callsubr
          -606 hlineto
          -12 -10 -4 -9 -9 hvcurveto
          -295 -295 -1 -1 -1 0 -1 -1 rlinecurve
          -2 -2 -1 -2 -3 -3 rrcurveto
          -3 -3 -1 -7 -94 callsubr
          35 95 -99 callsubr
          80 606 rmoveto
          186 186 rlineto
          9 9 10 4 12 hhcurveto
          440 hlineto
          22 7 -15 -16 -16 hvcurveto
          -186 -186 rlineto
          -9 -9 -10 -4 -12 hhcurveto
          -440 hlineto
          -22 -7 15 16 16 hvcurveto
          520 -538 rmoveto
          440 vlineto
          12 4 10 9 9 vhcurveto
          186 186 rlineto
          16 16 15 -7 -22 vvcurveto
          -440 vlineto
          -12 -4 -10 -9 -9 vhcurveto
          -186 -186 rlineto
          -16 -16 -15 7 22 vvcurveto
          endchar
        </CharString>
        <CharString name="braceleft">
          53 -98 callsubr
        </CharString>
        <CharString name="braceright">
          63 220 450 rmoveto
          220 -240 -220 -680 90 600 210 400 -210 600 -90 hlineto
          endchar
        </CharString>
        <CharString name="bracketleft">
          -77 540 1050 rmoveto
          80 -90 vlineto
          -220 -1600 220 hlineto
          90 80 -220 1440 hlineto
          endchar
        </CharString>
        <CharString name="bracketright">
          -77 70 1050 rmoveto
          220 -1440 -220 -80 90 hlineto
          220 1600 -220 hlineto
          -90 hlineto
          endchar
        </CharString>
        <CharString name="five">
          563 255 -106 callsubr
          endchar
        </CharString>
        <CharString name="four">
          498 190 -105 callsubr
          -715 591 rmoveto
          277 278 rlineto
          8 8 10 4 11 hhcurveto
          569 -107 callsubr
          -596 hlineto
          -12 -10 -4 -9 -9 hvcurveto
          -298 -297 rlineto
          -6 -7 -4 -8 -10 vvcurveto
          -19 16 -16 19 10 8 4 6 7 vhcurveto
          endchar
        </CharString>
        <CharString name="greater">
          60 201 1136 rmoveto
          -81 -30 306 -805 -283 -750 81 -30 293 780 rlineto
          endchar
        </CharString>
        <CharString name="greaterequal">
          93 479 1050 rmoveto
          23 28 32 39 13 13 rrcurveto
          -477 -80 303 hlineto
          -269 -390 -3 -647 274 -403 rrcurveto
          -305 -80 480 hlineto
          -13 14 -35 39 -12 15 -9 12 rcurveline
          -298 386 3 683 293 371 rrcurveto
          endchar
        </CharString>
        <CharString name="less">
          60 -97 callsubr
        </CharString>
        <CharString name="lessequal">
          93 -103 callsubr
        </CharString>
        <CharString name="one">
          51 620 629 rmoveto
          54 20 28 60 -20 53 -19 54 -60 27 -54 -19 -53 -20 -28 -59 20 -54 3 -7 3 -7 4 -7 -332 -552 rcurveline
          -16 2 -16 -1 -16 -6 -54 -20 -28 -60 20 -53 19 -54 60 -27 54 19 53 20 28 59 -20 54 -2 7 -4 6 -3 6 333 554 rcurveline
          15 -2 16 2 15 5 rrcurveto
          endchar
        </CharString>
        <CharString name="parenleft">
          -30 -100 callsubr
        </CharString>
        <CharString name="parenright">
          -30 136 1158 rmoveto
          -66 -53 356 -371 5 -788 -361 -391 rlinecurve
          66 -53 390 420 -5 837 -385 399 rlinecurve
          endchar
        </CharString>
        <CharString name="six">
          788 305 -106 callsubr
          1069 74 rmoveto
          -568 vlineto
          -12 -4 -10 -8 -9 vhcurveto
          -259 -277 -96 callsubr
          277 297 rlineto
          8 9 4 10 12 vvcurveto
          596 -93 callsubr
          endchar
        </CharString>
        <CharString name="space">
          -487 endchar
        </CharString>
        <CharString name="t">
          -387 71 1170 rmoveto
          -62 -159 -159 -62 159 -159 62 159 159 62 -159 hlineto
          endchar
        </CharString>
        <CharString name="three">
          443 135 -105 callsubr
          endchar
        </CharString>
        <CharString name="two">
          415 251 639 rmoveto
          -198 -578 rlineto
          -27 -9 12 -16 27 hhcurveto
          726 hlineto
          21 14 10 20 7 hvcurveto
          198 577 rlineto
          27 9 -12 17 -27 hhcurveto
          -726 hlineto
          -21 -13 -11 -19 -8 hvcurveto
          -70 -488 rmoveto
          136 398 rlineto
          19 8 13 11 21 hhcurveto
          533 hlineto
          27 12 -17 -27 -9 hvcurveto
          -137 -397 rlineto
          -20 -7 -14 -10 -21 hhcurveto
          -532 hlineto
          -27 -12 16 27 9 hvcurveto
          endchar
        </CharString>
        <CharString name="u1F325">
          0 324 776 rmoveto
          21 -14 21 -11 20 -9 47 -18 50 -3 49 12 rrcurveto
          -89 -25 -73 -59 -90 hhcurveto
          -112 -86 92 125 hvcurveto
          60 23 61 -9 57 -40 rrcurveto
          20 -251 rmoveto
          131 108 103 132 19 hvcurveto
          29 17 29 22 27 28 -41 47 rcurveline
          -14 -15 -15 -12 -14 -11 rrcurveto
          136 -16 -109 107 -134 hhcurveto
          -131 -108 -102 -132 -19 hvcurveto
          -30 -17 -29 -22 -27 -29 41 -47 rcurveline
          15 15 14 13 15 11 rrcurveto
          -136 15 110 -108 134 hhcurveto
          -188 347 rmoveto
          88 25 73 59 90 hhcurveto
          112 86 -91 -126 hvcurveto
          -62 -24 -62 11 -59 41 -19 13 -20 11 -19 8 -47 18 -50 3 -48 -11 rrcurveto
          endchar
        </CharString>
        <CharString name="u1F558">
          -45 321 501 rmoveto
          168 133 137 164 166 -133 135 -168 -168 -133 -135 -166 -164 133 -137 168 hvcurveto
          58 vmoveto
          -133 -104 102 141 141 104 102 133 133 104 -102 -141 -141 -104 -102 -133 hvcurveto
          -59 400 rmoveto
          -237 195 55 -140 182 vlineto
          endchar
        </CharString>
        <CharString name="u1F9F1">
          -107 324 1086 rmoveto
          -304 -311 238 hlineto
          -2 -251 rlineto
          304 311 -238 hlineto
          -242 hmoveto
          191 180 vlineto
          -1 -191 rlineto
          61 -251 rmoveto
          1 191 rlineto
          179 -191 hlineto
          endchar
        </CharString>
        <CharString name="u1F9F6">
          -129 139 1131 rmoveto
          -32 -56 43 -15 37 -16 34 -17 rlinecurve
          -161 -128 -1 -171 164 -132 -33 -18 -39 -17 -44 -16 31 -56 rcurveline
          54 20 47 23 40 25 40 -25 47 -23 54 -20 30 56 rcurveline
          -43 16 -39 17 -34 18 165 132 0 171 -162 128 33 17 38 16 42 15 -31 56 rcurveline
          -53 -19 -47 -21 -40 -24 -40 24 -47 21 -53 19 rrcurveto
          140 -501 rmoveto
          -158 111 1 142 157 109 157 -109 1 -142 -158 -111 rrcurveto
          endchar
        </CharString>
        <CharString name="uni0023FE0F20E3">
          360 -92 callsubr
        </CharString>
        <CharString name="uni002AFE0F20E3">
          360 -101 callsubr
        </CharString>
        <CharString name="uni23F3">
          -49 568 1086 rmoveto
          -498 hlineto
          213 -281 -213 -281 rlineto
          498 hlineto
          -212 281 rlineto
          -167 -220 rmoveto
          130 172 130 -172 rlineto
          -260 440 rmoveto
          260 hlineto
          -130 -172 rlineto
          endchar
        </CharString>
        <CharString name="uni25B7">
          -206 100 500 rmoveto
          -456 vlineto
          -28 28 -14 21 18 vhcurveto
          283 234 12 10 0 16 -12 10 rlinecurve
          -283 234 rlineto
          -21 18 -28 -14 -28 vvcurveto
          60 -64 rmoveto
          200 -164 -200 -164 rlineto
          endchar
        </CharString>
        <CharString name="uni25FB">
          -67 240 1100 rmoveto
          -60 -130 -110 -60 110 -160 -110 -60 110 -130 60 130 150 -130 60 130 100 60 -100 160 100 60 -100 130 -60 -130 -150 hlineto
          -220 vmoveto
          160 150 -160 vlineto
          endchar
        </CharString>
        <CharString name="uni25FD">
          endchar
        </CharString>
        <CharString name="uni26480301">
          60 -97 callsubr
        </CharString>
        <CharString name="uni264B0301">
          -30 -100 callsubr
        </CharString>
        <CharString name="uni264E0301">
          53 -98 callsubr
        </CharString>
        <CharString name="uni26530301">
          93 -103 callsubr
        </CharString>
        <CharString name="uni271D">
          -47 351 1100 rmoveto
          -62 -239 -219 -62 219 -239 62 239 219 62 -219 hlineto
          endchar
        </CharString>
        <CharString name="uni2733">
          -49 349 -101 callsubr
        </CharString>
        <CharString name="uni2747FE0F">
          endchar
        </CharString>
        <CharString name="uniA71B">
          -245 161 953 rmoveto
          -122 -146 -21 -26 -4 -20 15 -11 rlinecurve
          15 -12 20 5 22 22 20 20 rcurveline
          33 33 21 -2 -64 vvcurveto
          -400 vlineto
          -32 13 -18 23 23 13 18 32 vhcurveto
          400 vlineto
          64 21 2 41 -41 vhcurveto
          12 -12 22 -22 20 -5 15 12 rlinecurve
          15 12 -3 20 -21 25 -123 146 rcurveline
          -22 26 -26 0 -22 -26 rrcurveto
          endchar
        </CharString>
        <CharString name="uniA71C">
          -245 39 68 rmoveto
          122 -146 22 -26 26 0 22 26 rlinecurve
          123 146 21 25 3 20 -15 12 rlinecurve
          -15 12 -20 -5 -22 -22 -12 -12 rcurveline
          -41 -41 -21 2 64 vvcurveto
          400 vlineto
          32 -13 18 -23 -23 -13 -18 -32 vhcurveto
          -400 vlineto
          -64 -21 -2 -33 33 vhcurveto
          -20 20 -22 22 -20 5 -15 -12 rlinecurve
          -15 -11 4 -20 21 -26 rrcurveto
          endchar
        </CharString>
        <CharString name="uniFF5B">
          153 609 1000 rmoveto
          111 60 -150 hlineto
          -94 -42 -56 -74 -4 hvcurveto
          -20 -363 rlineto
          -166 -9 -40 -41 -90 hhcurveto
          -41 -60 41 hlineto
          90 40 -41 -166 9 hvcurveto
          20 -363 rlineto
          -74 4 42 -56 94 hhcurveto
          150 60 -111 hlineto
          -89 -17 46 61 -3 hvcurveto
          -20 363 -6 106 -27 62 -40 32 rlinecurve
          40 32 27 62 6 106 20 363 rcurveline
          61 3 17 46 89 hhcurveto
          endchar
        </CharString>
        <CharString name="uniFF5D">
          153 120 1000 rmoveto
          111 hlineto
          89 17 -46 -61 3 hvcurveto
          20 -363 6 -106 27 -62 40 -32 rlinecurve
          -40 -32 -27 -62 -6 -106 -20 -363 rcurveline
          -61 -3 -17 -46 -89 hhcurveto
          -111 -60 150 hlineto
          94 42 56 74 4 hvcurveto
          20 363 rlineto
          166 9 40 41 90 hhcurveto
          41 60 -41 hlineto
          -90 -40 41 166 -9 hvcurveto
          -20 363 rlineto
          74 -4 -42 56 -94 hhcurveto
          -150 hlineto
          endchar
        </CharString>
        <CharString name="x">
          -427 -150 853 rmoveto
          43 -43 127 127 127 -127 43 43 -127 127 127 127 -43 43 -127 -127 -127 127 -43 -43 127 -127 rlineto
          endchar
        </CharString>
        <CharString name="zero">
          111 399 117 rmoveto
          138 111 111 138 138 -111 111 -138 -138 -111 -111 -138 -138 111 -111 138 hvcurveto
          96 vmoveto
          -85 -68 68 85 86 68 67 85 86 67 -67 -86 -85 -67 -68 -86 hvcurveto
          endchar
        </CharString>
</ttFont>
